<?xml version="1.0" standalone="no"?><!DOCTYPE svg PUBLIC "-//W3C//DTD SVG 1.1//EN" "http://www.w3.org/Graphics/SVG/1.1/DTD/svg11.dtd"><svg t="1684820483411" class="icon" viewBox="0 0 1024 1024" version="1.1" xmlns="http://www.w3.org/2000/svg" p-id="3454" xmlns:xlink="http://www.w3.org/1999/xlink" width="64" height="64"><path d="M988.968421 512c0-264.084211-212.884211-476.968421-476.968421-476.968421C247.915789 35.031579 35.031579 247.915789 35.031579 512c0 261.389474 212.884211 476.968421 474.273684 476.968421h5.389474c261.389474 0 474.273684-215.578947 474.273684-476.968421zM167.073684 781.473684c-53.894737-70.063158-88.926316-156.294737-94.315789-250.610526h212.88421c0 43.115789 5.389474 115.873684 24.252632 188.631579-56.589474 13.473684-110.484211 32.336842-142.821053 61.978947zM164.378947 242.526316c32.336842 29.642105 86.231579 51.2 145.51579 64.673684-16.168421 72.757895-21.557895 142.821053-21.557895 185.936842H75.452632c2.694737-94.315789 35.031579-180.547368 88.926315-250.610526z m695.242106 0c53.894737 70.063158 86.231579 156.294737 91.621052 250.610526h-212.88421c0-43.115789-5.389474-113.178947-24.252632-185.936842 59.284211-13.473684 113.178947-35.031579 145.51579-64.673684zM700.631579 493.136842h-169.768421v-167.073684c43.115789 0 94.315789-5.389474 145.515789-13.473684 18.863158 72.757895 21.557895 142.821053 24.252632 180.547368z m-169.768421-204.8V83.536842c70.063158 37.726316 110.484211 115.873684 134.736842 194.021053-45.810526 8.084211-94.315789 10.778947-134.736842 10.778947z m-37.726316-204.8v204.8c-40.421053 0-88.926316-5.389474-134.736842-10.778947 21.557895-78.147368 64.673684-153.6 134.736842-194.021053z m0 242.526316v167.073684H323.368421c0-37.726316 5.389474-107.789474 24.252632-177.852631 53.894737 8.084211 107.789474 10.778947 145.515789 10.778947zM323.368421 530.863158h169.768421V700.631579c-37.726316 0-88.926316 2.694737-145.515789 13.473684-18.863158-75.452632-21.557895-145.515789-24.252632-183.242105z m169.768421 207.494737v202.105263c-70.063158-37.726316-110.484211-113.178947-134.736842-191.326316 45.810526-8.084211 94.315789-10.778947 134.736842-10.778947z m37.726316 202.105263v-202.105263c40.421053 0 88.926316 5.389474 134.736842 13.473684-24.252632 75.452632-64.673684 150.905263-134.736842 188.631579z m0-239.831579v-169.768421H700.631579c0 37.726316-5.389474 107.789474-24.252632 183.242105-51.2-8.084211-105.094737-13.473684-145.515789-13.473684z m207.494737-169.768421h212.88421c-5.389474 94.315789-37.726316 180.547368-94.315789 250.610526-32.336842-29.642105-86.231579-48.505263-142.821053-61.978947 16.168421-72.757895 21.557895-145.515789 24.252632-188.631579zM835.368421 215.578947c-26.947368 24.252632-75.452632 43.115789-129.347368 53.894737-21.557895-70.063158-56.589474-140.126316-113.178948-188.631579 94.315789 16.168421 177.852632 64.673684 242.526316 134.736842zM431.157895 80.842105c-56.589474 48.505263-91.621053 118.568421-113.178948 191.326316C264.084211 258.694737 215.578947 239.831579 188.631579 215.578947c64.673684-70.063158 148.210526-118.568421 242.526316-134.736842zM191.326316 811.115789c26.947368-24.252632 75.452632-43.115789 129.347368-53.894736 21.557895 70.063158 56.589474 140.126316 110.484211 185.936842-94.315789-16.168421-177.852632-64.673684-239.831579-132.042106zM592.842105 943.157895c56.589474-48.505263 88.926316-115.873684 110.484211-185.936842 53.894737 10.778947 102.4 29.642105 129.347368 53.894736-61.978947 67.368421-145.515789 115.873684-239.831579 132.042106z" fill="#101010" p-id="3455"></path></svg>